<svg xmlns="http://www.w3.org/2000/svg" viewBox="0 0 960 540" role="img" aria-labelledby="title desc">
  <title id="title">System architecture diagram</title>
  <desc id="desc">Block diagram linking vehicle subsystem, control system, communication layer and remote monitoring interface.</desc>
  <defs>
    <linearGradient id="panel" x1="0" y1="0" x2="1" y2="1">
      <stop offset="0" stop-color="#1f5eff"/>
      <stop offset="1" stop-color="#3aa4ff"/>
    </linearGradient>
  </defs>
  <rect width="960" height="540" rx="24" fill="#eef3ff"/>
  <rect x="70" y="90" width="240" height="120" rx="20" fill="url(#panel)"/>
  <rect x="360" y="90" width="240" height="120" rx="20" fill="#152846"/>
  <rect x="650" y="90" width="240" height="120" rx="20" fill="url(#panel)"/>

  <rect x="215" y="330" width="240" height="120" rx="20" fill="#152846"/>
  <rect x="505" y="330" width="240" height="120" rx="20" fill="#152846"/>

  <path d="M310 150h50" stroke="#152846" stroke-width="8" stroke-linecap="round"/>
  <path d="M600 150h50" stroke="#152846" stroke-width="8" stroke-linecap="round"/>
  <path d="M430 210v78" stroke="#152846" stroke-width="8" stroke-linecap="round"/>
  <path d="M625 210v78" stroke="#152846" stroke-width="8" stroke-linecap="round"/>
  <path d="M455 390h50" stroke="#152846" stroke-width="8" stroke-linecap="round"/>

  <polygon points="358,142 358,158 378,150" fill="#152846"/>
  <polygon points="648,142 648,158 668,150" fill="#152846"/>
  <polygon points="422,286 438,286 430,306" fill="#152846"/>
  <polygon points="617,286 633,286 625,306" fill="#152846"/>
  <polygon points="503,382 503,398 523,390" fill="#152846"/>

  <text x="102" y="136" font-family="Arial, sans-serif" font-size="24" font-weight="700" fill="#fff">Vehicle subsystem</text>
  <text x="102" y="172" font-family="Arial, sans-serif" font-size="18" fill="#e9f1ff">Cameras, LiDAR, positioning, telemetry</text>

  <text x="394" y="136" font-family="Arial, sans-serif" font-size="24" font-weight="700" fill="#fff">Control system</text>
  <text x="394" y="172" font-family="Arial, sans-serif" font-size="18" fill="#d8e4ff">Trajectory tracking and vehicle control</text>

  <text x="682" y="136" font-family="Arial, sans-serif" font-size="24" font-weight="700" fill="#fff">Remote HMI</text>
  <text x="682" y="172" font-family="Arial, sans-serif" font-size="18" fill="#e9f1ff">Operator dashboard and interventions</text>

  <text x="248" y="376" font-family="Arial, sans-serif" font-size="24" font-weight="700" fill="#fff">Communication layer</text>
  <text x="248" y="412" font-family="Arial, sans-serif" font-size="18" fill="#d8e4ff">Low-latency bidirectional data flow</text>

  <text x="542" y="376" font-family="Arial, sans-serif" font-size="24" font-weight="700" fill="#fff">Fail-safe logic</text>
  <text x="542" y="412" font-family="Arial, sans-serif" font-size="18" fill="#d8e4ff">Validation, health checks, safe stop</text>
</svg>
